<svg xmlns="http://www.w3.org/2000/svg" viewBox="0 0 203.25 191.28"><defs><style>.cls-1{fill:#ed0000;}.cls-2{font-size:39.54px;font-family:Calibri-Bold, Calibri;font-weight:700;}</style></defs><title>RUTH</title><g id="Capa_2" data-name="Capa 2"><g id="Capa_1-2" data-name="Capa 1"><path class="cls-1" d="M197.79,53.71C196.46,39.37,181.25,8.82,157,5.79c-32.67-4.08-44.21,15.49-55.13,37.73h0C90.91,21.28,79.36,1.71,46.7,5.79,22.4,8.82,7.19,39.37,5.86,53.71c-5.1,55.07,26.24,102,96,132.57C171.55,155.69,202.89,108.78,197.79,53.71Z"/><path class="cls-1" d="M202.79,53.71c-2-18.46-14.12-38.22-30.18-47.65C154.27-4.71,128.55-.7,114.12,14.69a75.88,75.88,0,0,0-9.82,13.45c-1.53,2.58-3,5.23-4.32,7.9-1.11,2.17-3.16,5-3.16,7.48L106.14,41C99.45,27.4,91.62,12.81,77.64,5.49,62.83-2.28,42.37-1.9,28.48,7.69,15.75,16.48,6.45,31,2.33,45.76-1.6,59.91,0,76.56,3.11,90.71c7.41,33.41,30.39,60.12,58.1,79.06A221.23,221.23,0,0,0,88,185.3c3.83,1.9,9.54,6,13.87,6,2.41,0,5.06-1.8,7.15-2.77,2.51-1.15,5-2.34,7.46-3.57,17.44-8.71,34.07-19.5,48.22-33,27-25.79,41.43-60.82,38.14-98.24-.56-6.36-10.57-6.42-10,0,1.75,19.93-1.21,40-10.22,58-9.83,19.64-25.5,35.71-43.37,48.23A235.11,235.11,0,0,1,99.3,182h5c-38.06-16.83-76.07-43.39-89.17-84.88-5-15.76-7.7-35.47-2.34-51.47,5.79-17.27,19.29-34.16,38.6-35.26,10.77-.61,21.1,1.88,29.07,9.44,7.62,7.24,12.42,17,17,26.25,2.25,4.57,9.31,2.22,9.31-2.52,0,3.12,1-.77,1.52-1.89s1.11-2.16,1.68-3.23c1.3-2.45,2.66-4.87,4.13-7.22a56.62,56.62,0,0,1,9-11.39c8.58-8.15,19.9-10.34,31.41-9.26S175.13,19,181.66,28c5.29,7.34,10.15,16.55,11.13,25.68C193.47,60.05,203.47,60.12,202.79,53.71Z"/><text class="cls-2" transform="matrix(1.12, 0, -0.13, 0.99, 49.52, 95.81)">RUTH</text></g></g></svg>